<svg width="44" height="45" viewBox="0 0 44 45" fill="none" xmlns="http://www.w3.org/2000/svg">
<path id="Vector" d="M24.2446 7.70615L25.9417 5.99665C29.2745 2.63965 34.7003 2.55656 38.0522 5.89422C39.3223 7.16173 40.1664 8.79816 40.4658 10.5736C40.7652 12.3492 40.5049 14.1745 39.7214 15.7933C39.3456 16.5666 39.2191 17.4388 39.3592 18.2881C39.4995 19.1374 39.8995 19.9214 40.5036 20.5305C41.6143 19.4091 42.4947 18.0783 43.0946 16.614C43.6945 15.1498 44.0022 13.5808 44 11.9967C43.9976 10.4127 43.6857 8.84463 43.0817 7.3821C42.4776 5.91954 41.5934 4.5912 40.4796 3.47297C35.7925 -1.2216 28.1844 -1.12818 23.5105 3.57958L7.33376 19.8735L6.00388 18.534C2.6146 15.12 2.593 9.53962 6.04207 6.18635C7.31877 4.94895 8.9453 4.14118 10.6972 3.87454C12.4491 3.60791 14.2399 3.89556 15.8226 4.69777C16.5449 5.07064 17.3658 5.20402 18.1679 5.07888C18.9701 4.95374 19.7124 4.57648 20.289 4.00096L20.3302 3.95963C20.3431 3.9468 20.3532 3.93152 20.3602 3.91468C20.3671 3.89787 20.3707 3.87982 20.3707 3.8616C20.3707 3.84337 20.3671 3.82533 20.3602 3.80851C20.3532 3.7917 20.3431 3.77642 20.3302 3.76356C18.1037 1.57721 15.1201 0.349138 12.0107 0.339209C8.90126 0.329282 5.90994 1.53827 3.66973 3.71036C-1.15592 8.40274 -1.13868 16.2057 3.60426 20.9831L19.7762 37.2727L18.0583 39.0031C14.7255 42.3601 9.29954 42.4432 5.9478 39.1055C4.6777 37.8381 3.83366 36.2015 3.53423 34.4261C3.23483 32.6507 3.49504 30.8253 4.27837 29.2064C4.65417 28.4331 4.78083 27.5609 4.64067 26.7117C4.50048 25.8624 4.10044 25.0783 3.49646 24.4692C2.38575 25.5907 1.50528 26.9214 0.905353 28.3856C0.305419 29.85 -0.00221719 31.4188 1.20288e-05 33.003C0.00224126 34.587 0.314292 36.1552 0.918346 37.6176C1.5224 39.0802 2.40661 40.4086 3.52046 41.5268C8.20732 46.2215 15.8156 46.1283 20.4896 41.4204L36.6872 25.1047L38.0221 26.4493C41.3549 29.8063 41.4374 35.2715 38.1238 38.6476C36.8655 39.9272 35.2408 40.7772 33.4782 41.079C31.7156 41.3806 29.9034 41.1183 28.2962 40.3292C27.5282 39.9505 26.6619 39.8228 25.8184 39.9643C24.975 40.1057 24.1964 40.509 23.5916 41.1179C24.705 42.2368 26.0262 43.1237 27.4798 43.728C28.9336 44.3322 30.4911 44.6422 32.0639 44.64C33.6364 44.6376 35.1932 44.3232 36.6451 43.7148C38.0972 43.1063 39.4159 42.2157 40.526 41.0937C45.1869 36.3728 45.0942 28.7092 40.4204 24.0014L24.2446 7.70615ZM22.1911 34.8391L9.74931 22.3069L21.8288 10.1397L34.2706 22.672L22.1911 34.8391Z" fill="#6D7D7D"/>
</svg>
